<svg xmlns="http://www.w3.org/2000/svg" viewBox="0 0 1334 175" width="1334" height="175">
	<defs>
	</defs>
	<path id="Text layer 26" style="fill: #ffffff" d="M898.1,145v-4.75h-44.53v-39.55h41.66v-4.75h-41.66v-33.57h43.48v-4.86h-49.45v87.48zM929.39,145v-44.3h34.69v-4.75h-34.69v-33.57h38.44v-4.86h-44.36v87.48zM1003.1,145v-76.82l22.44,60h8.09l22.5,-60v76.82h5.98v-87.48h-8.09l-24.43,64.86l-24.32,-64.86h-8.14v87.48z" />
	<path id="Layer" style="fill: #ffffff" d="M291.6,144c-6.3,0 -12.4,-1.7 -17.7,-5c-5.3,-3.1 -9.7,-7.5 -13,-12.7v16.2h-4.9v-111.2h5.2v50c3.6,-5.5 8.3,-10.2 13.6,-13.9c5.3,-3.6 11.6,-5.4 18.1,-5.3c5.4,-0.1 10.7,1.2 15.4,3.7c4.4,2.3 8.3,5.6 11.4,9.5c3.1,4 5.6,8.4 7.2,13.2c1.7,4.8 2.5,9.8 2.5,14.9c0,5.3 -1,10.5 -2.9,15.4c-1.9,4.8 -4.6,9.2 -8.1,13c-3.4,3.7 -7.5,6.8 -12.1,9c-4.6,2.1 -9.6,3.3 -14.7,3.2zM290.8,139.2c4.7,0 9.3,-1.1 13.5,-3.2c4,-2 7.6,-4.8 10.6,-8.2c3,-3.4 5.3,-7.3 6.9,-11.5c1.7,-4.2 2.5,-8.7 2.5,-13.2c0,-4.6 -0.8,-9.2 -2.4,-13.6c-1.5,-4.2 -3.7,-8.1 -6.6,-11.6c-2.8,-3.4 -6.2,-6.1 -10.1,-8.1c-4.1,-2.1 -8.6,-3.1 -13.1,-3.1c-3.4,0 -6.8,0.6 -10.1,1.8c-3.1,1.2 -6,2.8 -8.6,4.9c-2.6,2.1 -5,4.4 -7,7c-2.1,2.6 -3.8,5.4 -5.3,8.4v27.6c0.3,3.2 1.5,6.2 3.4,8.7c2,2.8 4.5,5.2 7.3,7.2c2.9,2.1 6,3.7 9.4,4.9c3.1,1.3 6.4,1.9 9.6,2z" />
	<path id="Layer" style="fill: #ffffff" d="M367.8,144c-3.5,0 -7,-0.6 -10.2,-1.9c-3,-1.2 -5.8,-3 -8.2,-5.2c-2.3,-2.2 -4.2,-4.8 -5.5,-7.7c-1.3,-3 -2,-6.3 -2,-9.6c0,-3.2 0.8,-6.4 2.4,-9.2c1.7,-2.9 4,-5.3 6.8,-7.2c3.2,-2.2 6.7,-3.8 10.4,-4.7c4.3,-1.2 8.8,-1.7 13.2,-1.7c4.5,0 9,0.4 13.5,1.1c4.2,0.6 8.3,1.7 12.3,3.2v-8.5c0,-7.9 -2.3,-14.3 -6.8,-19c-4.5,-4.7 -10.6,-7.1 -18.2,-7.1c-4.2,0.1 -8.4,0.9 -12.4,2.5c-4.7,1.8 -9.1,4.3 -13.1,7.2l-2.4,-3.8c10.2,-6.9 19.6,-10.4 28.2,-10.4c9.2,0 16.5,2.7 21.9,8.2c5.3,5.5 8,13 8,22.6v41.5c0,2.2 0.9,3.3 2.7,3.3v4.9c-0.3,0.1 -0.6,0.1 -0.8,0.2h-0.7c-1.7,0 -3.2,-0.7 -4.3,-1.9c-1.2,-1.3 -1.8,-2.9 -1.8,-4.6v-7c-3.7,4.8 -8.6,8.6 -14.2,11c-5.9,2.5 -12.3,3.9 -18.8,3.8zM368.4,139.6c3.8,0 7.7,-0.5 11.4,-1.5c3.6,-0.9 7.1,-2.3 10.3,-4.2c2.8,-1.6 5.4,-3.7 7.5,-6.2c1.8,-2.1 2.9,-4.7 2.9,-7.5v-15c-8.1,-3.1 -16.7,-4.6 -25.3,-4.6c-3.9,0 -7.7,0.4 -11.4,1.4c-3.2,0.8 -6.2,2.1 -8.9,3.8c-2.3,1.5 -4.3,3.5 -5.8,5.8c-1.4,2.3 -2.1,5 -2.1,7.7c0,2.7 0.5,5.4 1.7,7.9c1.1,2.4 2.6,4.6 4.6,6.4c2,1.9 4.3,3.3 6.8,4.3c2.5,1.2 5.4,1.7 8.3,1.7z" />
	<path id="Layer" style="fill: #ffffff" d="M461.7,138.9l-1.5,0.8c-1.1,0.6 -2.2,1.1 -3.3,1.5c-1.5,0.6 -3.1,1.1 -4.7,1.4c-1.9,0.4 -3.9,0.6 -5.9,0.6c-3.7,0.1 -7.4,-1.1 -10.3,-3.4c-2.9,-2.3 -4.5,-5.9 -4.3,-9.7v-62.3h-11.3v-4.5h11.3v-27.4h5.2v27.3h18.7v4.6h-18.7v61.5c0,2.6 1.2,5.1 3.3,6.7c2,1.5 4.5,2.3 7,2.3c1.6,0 3.1,-0.2 4.6,-0.5c1.3,-0.3 2.6,-0.7 3.9,-1.2c0.9,-0.4 1.9,-0.8 2.7,-1.3c0.4,-0.2 0.8,-0.5 1.2,-0.8z" />
	<path id="Layer" style="fill: #ffffff" d="M508.5,138.9l-1.5,0.8c-1.1,0.6 -2.2,1.1 -3.3,1.5c-1.5,0.6 -3.1,1.1 -4.7,1.4c-1.9,0.4 -3.9,0.6 -5.9,0.6c-3.7,0.1 -7.4,-1.1 -10.3,-3.4c-2.9,-2.3 -4.5,-5.9 -4.3,-9.7v-62.3h-11.2v-4.5h11.3v-27.4h5.2v27.3h18.7v4.6h-18.7v61.5c0,2.6 1.2,5.1 3.3,6.7c2,1.5 4.5,2.3 7,2.3c1.6,0 3.1,-0.2 4.6,-0.5c1.3,-0.3 2.6,-0.7 3.9,-1.2c0.9,-0.4 1.9,-0.8 2.7,-1.3c0.4,-0.2 0.8,-0.5 1.2,-0.8z" />
	<path id="Layer" style="fill: #ffffff" d="M553.4,144c-5.2,0 -10.4,-1.1 -15.1,-3.3c-4.6,-2.2 -8.8,-5.2 -12.3,-9c-3.5,-3.9 -6.3,-8.3 -8.2,-13.2c-2,-5.1 -3,-10.6 -3,-16.1c0,-5.4 0.9,-10.7 2.9,-15.7c1.8,-4.8 4.6,-9.1 8.1,-12.8c3.4,-3.6 7.5,-6.6 12,-8.7c4.7,-2.2 9.8,-3.3 14.9,-3.2c5.2,0 10.4,1 15.2,3.2c4.6,2.1 8.8,5.1 12.2,8.8c3.5,3.8 6.3,8.2 8.2,13c2,5 3,10.4 3,15.9v1.1c0.1,0.4 0,0.8 -0.2,1.1h-71.1c0.4,4.7 1.5,9.3 3.4,13.6c1.8,4 4.2,7.7 7.3,10.9c3,3 6.5,5.5 10.4,7.2c3.9,1.8 8.2,2.7 12.5,2.7c2.9,0 5.7,-0.4 8.5,-1.1c2.8,-0.8 5.4,-1.9 7.9,-3.3c2.4,-1.4 4.5,-3.1 6.4,-5.1c1.8,-1.9 3.3,-4.1 4.4,-6.5l4.7,1.2c-1.2,2.8 -2.8,5.4 -4.9,7.7c-2.2,2.4 -4.7,4.5 -7.5,6.1c-3,1.7 -6.1,3 -9.4,4c-3.4,1.1 -6.9,1.6 -10.3,1.5zM586.1,100.7c-0.2,-4.7 -1.3,-9.4 -3.2,-13.7c-1.7,-4 -4.2,-7.7 -7.2,-10.8c-2.9,-3 -6.4,-5.4 -10.3,-7.1c-4,-1.7 -8.2,-2.5 -12.5,-2.5c-4.3,0 -8.5,0.9 -12.5,2.6c-3.8,1.7 -7.3,4.1 -10.1,7.2c-3,3.2 -5.3,6.8 -7,10.8c-1.8,4.3 -2.9,8.9 -3.2,13.6h66z" />
	<path id="Layer" style="fill: #ffffff" d="M644.2,68.1c-6.9,0.2 -13.6,2.6 -19.1,6.9c-5.5,4.5 -9.5,10.7 -11.3,17.6v49.9h-5.2v-79.2h5v20.1c2.6,-5.4 6.3,-10.1 11,-13.7c4.2,-3.4 9.3,-5.6 14.6,-6.3c1,-0.1 2,-0.2 2.8,-0.2h2.1z" />
	<path id="Layer" style="fill: #92e503" d="M644.2,172.7c0,0 1.6,-2.2 4.5,-6.1c2.9,-3.9 7,-9.4 12,-16l8,-10.6c2.8,-3.8 5.8,-7.7 8.8,-11.9c3,-4.2 6,-8.4 8.9,-12.9c1.4,-2.2 2.8,-4.5 4,-6.7c0.3,-0.6 0.6,-1.1 0.8,-1.7c0.3,-0.5 0.5,-1.1 0.7,-1.6l0.3,-0.8c0.1,-0.3 0.1,-0.5 0.2,-0.7c0.1,-0.2 0.1,-0.4 0.1,-0.6v-0.2v-0.1v-0.1c0,0.2 0,-0.4 0,0.4c0,-0.6 -0.1,-1.1 -0.3,-1.7c-0.1,-0.2 -0.1,-0.3 -0.2,-0.5l-0.3,-0.8c-0.2,-0.6 -0.5,-1.1 -0.7,-1.6c-0.2,-0.6 -0.5,-1.1 -0.8,-1.7c-1.2,-2.2 -2.6,-4.5 -4,-6.7c-2.9,-4.4 -5.9,-8.7 -8.9,-12.9c-3,-4.2 -5.9,-8.1 -8.8,-11.9l-8,-10.6c-5,-6.6 -9.1,-12.1 -12,-16c-2.9,-3.8 -4.5,-6.1 -4.5,-6.1c0,0 2.1,1.8 5.6,5.1c1.8,1.7 3.9,3.7 6.3,6c2.4,2.4 5.1,5 7.9,8.1c2.8,3.1 5.9,6.3 9.1,9.8c3.2,3.6 6.5,7.3 9.8,11.4c3.3,4 6.6,8.3 9.7,12.9c1.6,2.3 3.1,4.7 4.5,7.2c0.4,0.6 0.7,1.3 1,2c0.3,0.7 0.7,1.3 0.9,2.1l0.4,1.1c0.2,0.4 0.3,1 0.4,1.5c0.2,0.8 0.3,1.6 0.4,2.4c0,0.8 0,0.3 0,0.5v0.1v0.2v0.4l-0.1,0.8c-0.1,0.5 -0.2,0.9 -0.3,1.4c-0.1,0.4 -0.2,0.9 -0.4,1.3l-0.4,1.1c-0.3,0.8 -0.6,1.4 -0.9,2.1c-0.3,0.7 -0.7,1.3 -1,2c-1.4,2.5 -2.9,4.9 -4.5,7.2c-3.1,4.6 -6.4,8.8 -9.7,12.9c-3.3,4.1 -6.6,7.8 -9.8,11.4c-3.2,3.5 -6.2,6.8 -9.1,9.8c-5.7,6 -10.7,10.8 -14.2,14.1c-3.5,3.3 -5.4,5.2 -5.4,5.2z" />
	<path id="Layer" style="fill: #92e503" d="M760.5,172.7c0,0 -2.1,-1.8 -5.6,-5.1c-3.5,-3.3 -8.5,-8.1 -14.2,-14.1c-2.9,-3 -5.9,-6.3 -9.1,-9.8c-3.2,-3.6 -6.5,-7.3 -9.8,-11.4c-3.3,-4.1 -6.6,-8.3 -9.7,-12.9c-1.6,-2.3 -3.1,-4.7 -4.5,-7.2c-0.4,-0.6 -0.7,-1.3 -1,-2c-0.3,-0.7 -0.7,-1.3 -0.9,-2.1l-0.4,-1.1c-0.1,-0.4 -0.3,-0.8 -0.4,-1.3c-0.3,-1 -0.4,-2 -0.5,-3v-0.5v-0.2v-0.3l0.1,-0.5c0.1,-0.5 0.2,-0.9 0.3,-1.4c0.1,-0.5 0.3,-1.1 0.4,-1.5l0.4,-1.1c0.3,-0.8 0.6,-1.4 0.9,-2.1c0.3,-0.7 0.7,-1.3 1,-2c1.4,-2.5 2.9,-4.9 4.5,-7.2c3.1,-4.6 6.4,-8.8 9.7,-12.9c3.3,-4.1 6.6,-7.8 9.8,-11.4c3.2,-3.5 6.2,-6.8 9.1,-9.8c2.9,-3 5.5,-5.7 7.9,-8.1c2.4,-2.4 4.5,-4.4 6.3,-6c3.5,-3.3 5.6,-5.1 5.6,-5.1c0,0 -1.6,2.2 -4.5,6.1c-2.9,3.9 -7,9.4 -12,16l-8,10.6c-2.8,3.8 -5.8,7.7 -8.8,11.9c-3,4.2 -6,8.4 -8.9,12.9c-1.4,2.2 -2.8,4.5 -4,6.7c-0.3,0.6 -0.6,1.1 -0.8,1.7c-0.3,0.5 -0.5,1.1 -0.7,1.6l-0.3,0.8c-0.1,0.2 -0.1,0.3 -0.2,0.5c-0.1,0.2 -0.2,0.4 -0.2,0.6l-0.1,0.5v0.3v0.1c0,-0.2 0,0.4 0,-0.3c0,0.4 0.1,0.7 0.2,1.1c0.1,0.2 0.1,0.5 0.2,0.7l0.3,0.8c0.2,0.6 0.5,1.1 0.7,1.6c0.2,0.6 0.5,1.1 0.8,1.7c1.2,2.2 2.6,4.5 4,6.7c2.9,4.4 5.9,8.7 8.9,12.9c3,4.1 5.9,8.1 8.8,11.9l8,10.6c5,6.6 9.1,12.1 12,16c3,3.8 4.7,6.1 4.7,6.1z" />
	<path id="Layer" style="fill: #ffffff" d="M779.9,31.8c-2,0 -4,-0.4 -5.9,-1.1c-1.8,-0.7 -3.4,-1.7 -4.7,-3.1c-1.3,-1.3 -2.4,-2.9 -3.1,-4.6c-1.5,-3.7 -1.5,-7.9 0,-11.6c0.7,-1.7 1.8,-3.3 3.1,-4.6c1.4,-1.3 3,-2.4 4.7,-3.1c1.9,-0.7 3.9,-1.1 5.9,-1.1c2,0 4.1,0.4 5.9,1.1c1.8,0.7 3.4,1.7 4.7,3.1c1.3,1.3 2.4,2.9 3.1,4.6c1.5,3.7 1.5,7.9 0,11.6c-1.5,3.5 -4.3,6.3 -7.9,7.7c-1.7,0.8 -3.7,1.1 -5.8,1.1zM779.9,30.5c1.8,0 3.6,-0.3 5.3,-1c1.6,-0.6 3.1,-1.5 4.3,-2.7c1.2,-1.2 2.2,-2.6 2.9,-4.2c0.7,-1.7 1.1,-3.6 1,-5.4c0,-1.8 -0.3,-3.6 -1,-5.3c-0.6,-1.6 -1.6,-3 -2.8,-4.2c-1.2,-1.2 -2.7,-2.2 -4.3,-2.8c-1.7,-0.7 -3.5,-1 -5.4,-1c-1.8,0 -3.7,0.3 -5.4,1c-3.2,1.3 -5.7,3.8 -7,7c-0.7,1.7 -1,3.4 -1,5.2c0,1.8 0.3,3.6 1,5.3c0.6,1.6 1.6,3 2.8,4.2c1.2,1.2 2.6,2.2 4.2,2.8c1.8,0.8 3.6,1.1 5.4,1.1zM773.8,8.1h7.7c0.8,0 1.5,0.2 2.2,0.5c0.7,0.3 1.2,0.8 1.7,1.3c0.5,0.6 0.8,1.2 1.1,1.9c0.3,0.7 0.4,1.4 0.4,2.1c0,1.3 -0.4,2.5 -1.1,3.5c-0.7,1 -1.8,1.7 -3,1.9l4.5,7.1h-2.3l-4.3,-6.8h-4.8v6.8h-2.1zM781.5,17.7c1,0.1 1.9,-0.3 2.5,-1.1c0.6,-0.8 0.9,-1.8 0.8,-2.8c0,-1 -0.3,-2 -1,-2.8c-0.6,-0.7 -1.6,-1.1 -2.5,-1.1h-5.5v7.7z" />
</svg>