<?xml version="1.0" encoding="utf-8"?>
<!-- Generator: Adobe Illustrator 21.1.0, SVG Export Plug-In . SVG Version: 6.00 Build 0)  -->
<svg version="1.1" id="Calque_1" xmlns="http://www.w3.org/2000/svg" xmlns:xlink="http://www.w3.org/1999/xlink" x="0px" y="0px"
	 viewBox="0 0 1334 175" style="enable-background:new 0 0 1334 175;" xml:space="preserve">
<style type="text/css">
	.st0{fill:#FFFFFF;}
	.st1{fill:#92E503;}
	.st2{enable-background:new    ;}
</style>
<path class="st0" d="M68.6,144c-6.3,0-12.4-1.7-17.7-5c-5.3-3.1-9.7-7.5-13-12.7v16.2H33V31.3h5.2v50c3.6-5.5,8.3-10.2,13.6-13.9
	c5.3-3.6,11.6-5.4,18.1-5.3c5.4-0.1,10.7,1.2,15.4,3.7c4.4,2.3,8.3,5.6,11.4,9.5c3.1,4,5.6,8.4,7.2,13.2c1.7,4.8,2.5,9.8,2.5,14.9
	c0,5.3-1,10.5-2.9,15.4c-1.9,4.8-4.6,9.2-8.1,13c-3.4,3.7-7.5,6.8-12.1,9C78.7,142.9,73.7,144.1,68.6,144z M67.8,139.2
	c4.7,0,9.3-1.1,13.5-3.2c4-2,7.6-4.8,10.6-8.2c3-3.4,5.3-7.3,6.9-11.5c1.7-4.2,2.5-8.7,2.5-13.2c0-4.6-0.8-9.2-2.4-13.6
	c-1.5-4.2-3.7-8.1-6.6-11.6c-2.8-3.4-6.2-6.1-10.1-8.1c-4.1-2.1-8.6-3.1-13.1-3.1c-3.4,0-6.8,0.6-10.1,1.8c-3.1,1.2-6,2.8-8.6,4.9
	c-2.6,2.1-5,4.4-7,7c-2.1,2.6-3.8,5.4-5.3,8.4v27.6c0.3,3.2,1.5,6.2,3.4,8.7c2,2.8,4.5,5.2,7.3,7.2c2.9,2.1,6,3.7,9.4,4.9
	C61.3,138.5,64.6,139.1,67.8,139.2z"/>
<path class="st0" d="M144.8,144c-3.5,0-7-0.6-10.2-1.9c-3-1.2-5.8-3-8.2-5.2c-2.3-2.2-4.2-4.8-5.5-7.7c-1.3-3-2-6.3-2-9.6
	c0-3.2,0.8-6.4,2.4-9.2c1.7-2.9,4-5.3,6.8-7.2c3.2-2.2,6.7-3.8,10.4-4.7c4.3-1.2,8.8-1.7,13.2-1.7c4.5,0,9,0.4,13.5,1.1
	c4.2,0.6,8.3,1.7,12.3,3.2v-8.5c0-7.9-2.3-14.3-6.8-19c-4.5-4.7-10.6-7.1-18.2-7.1c-4.2,0.1-8.4,0.9-12.4,2.5
	c-4.7,1.8-9.1,4.3-13.1,7.2l-2.4-3.8c10.2-6.9,19.6-10.4,28.2-10.4c9.2,0,16.5,2.7,21.9,8.2c5.3,5.5,8,13,8,22.6v41.5
	c0,2.2,0.9,3.3,2.7,3.3v4.9c-0.3,0.1-0.6,0.1-0.8,0.2h-0.7c-1.7,0-3.2-0.7-4.3-1.9c-1.2-1.3-1.8-2.9-1.8-4.6v-7
	c-3.7,4.8-8.6,8.6-14.2,11C157.7,142.7,151.3,144.1,144.8,144z M145.4,139.6c3.8,0,7.7-0.5,11.4-1.5c3.6-0.9,7.1-2.3,10.3-4.2
	c2.8-1.6,5.4-3.7,7.5-6.2c1.8-2.1,2.9-4.7,2.9-7.5v-15c-8.1-3.1-16.7-4.6-25.3-4.6c-3.9,0-7.7,0.4-11.4,1.4
	c-3.2,0.8-6.2,2.1-8.9,3.8c-2.3,1.5-4.3,3.5-5.8,5.8c-1.4,2.3-2.1,5-2.1,7.7c0,2.7,0.5,5.4,1.7,7.9c1.1,2.4,2.6,4.6,4.6,6.4
	c2,1.9,4.3,3.3,6.8,4.3C139.6,139.1,142.5,139.6,145.4,139.6L145.4,139.6z"/>
<path class="st0" d="M238.7,138.9l-1.5,0.8c-1.1,0.6-2.2,1.1-3.3,1.5c-1.5,0.6-3.1,1.1-4.7,1.4c-1.9,0.4-3.9,0.6-5.9,0.6
	c-3.7,0.1-7.4-1.1-10.3-3.4c-2.9-2.3-4.5-5.9-4.3-9.7V67.8h-11.3v-4.5h11.3V35.9h5.2v27.3h18.7v4.6h-18.7v61.5
	c0,2.6,1.2,5.1,3.3,6.7c2,1.5,4.5,2.3,7,2.3c1.6,0,3.1-0.2,4.6-0.5c1.3-0.3,2.6-0.7,3.9-1.2c0.9-0.4,1.9-0.8,2.7-1.3
	c0.4-0.2,0.8-0.5,1.2-0.8L238.7,138.9z"/>
<path class="st0" d="M285.5,138.9l-1.5,0.8c-1.1,0.6-2.2,1.1-3.3,1.5c-1.5,0.6-3.1,1.1-4.7,1.4c-1.9,0.4-3.9,0.6-5.9,0.6
	c-3.7,0.1-7.4-1.1-10.3-3.4c-2.9-2.3-4.5-5.9-4.3-9.7V67.8h-11.2v-4.5h11.3V35.9h5.2v27.3h18.7v4.6h-18.7v61.5
	c0,2.6,1.2,5.1,3.3,6.7c2,1.5,4.5,2.3,7,2.3c1.6,0,3.1-0.2,4.6-0.5c1.3-0.3,2.6-0.7,3.9-1.2c0.9-0.4,1.9-0.8,2.7-1.3
	c0.4-0.2,0.8-0.5,1.2-0.8L285.5,138.9z"/>
<path class="st0" d="M330.4,144c-5.2,0-10.4-1.1-15.1-3.3c-4.6-2.2-8.8-5.2-12.3-9c-3.5-3.9-6.3-8.3-8.2-13.2c-2-5.1-3-10.6-3-16.1
	c0-5.4,0.9-10.7,2.9-15.7c1.8-4.8,4.6-9.1,8.1-12.8c3.4-3.6,7.5-6.6,12-8.7c4.7-2.2,9.8-3.3,14.9-3.2c5.2,0,10.4,1,15.2,3.2
	c4.6,2.1,8.8,5.1,12.2,8.8c3.5,3.8,6.3,8.2,8.2,13c2,5,3,10.4,3,15.9v1.1c0.1,0.4,0,0.8-0.2,1.1h-71.1c0.4,4.7,1.5,9.3,3.4,13.6
	c1.8,4,4.2,7.7,7.3,10.9c3,3,6.5,5.5,10.4,7.2c3.9,1.8,8.2,2.7,12.5,2.7c2.9,0,5.7-0.4,8.5-1.1c2.8-0.8,5.4-1.9,7.9-3.3
	c2.4-1.4,4.5-3.1,6.4-5.1c1.8-1.9,3.3-4.1,4.4-6.5l4.7,1.2c-1.2,2.8-2.8,5.4-4.9,7.7c-2.2,2.4-4.7,4.5-7.5,6.1c-3,1.7-6.1,3-9.4,4
	C337.3,143.6,333.8,144.1,330.4,144z M363.1,100.7c-0.2-4.7-1.3-9.4-3.2-13.7c-1.7-4-4.2-7.7-7.2-10.8c-2.9-3-6.4-5.4-10.3-7.1
	c-4-1.7-8.2-2.5-12.5-2.5c-4.3,0-8.5,0.9-12.5,2.6c-3.8,1.7-7.3,4.1-10.1,7.2c-3,3.2-5.3,6.8-7,10.8c-1.8,4.3-2.9,8.9-3.2,13.6
	H363.1z"/>
<path class="st0" d="M421.2,68.1c-6.9,0.2-13.6,2.6-19.1,6.9c-5.5,4.5-9.5,10.7-11.3,17.6v49.9h-5.2V63.3h5v20.1
	c2.6-5.4,6.3-10.1,11-13.7c4.2-3.4,9.3-5.6,14.6-6.3c1-0.1,2-0.2,2.8-0.2h2.1L421.2,68.1z"/>
<path class="st1" d="M421.2,172.7c0,0,1.6-2.2,4.5-6.1c2.9-3.9,7-9.4,12-16l8-10.6c2.8-3.8,5.8-7.7,8.8-11.9c3-4.2,6-8.4,8.9-12.9
	c1.4-2.2,2.8-4.5,4-6.7c0.3-0.6,0.6-1.1,0.8-1.7c0.3-0.5,0.5-1.1,0.7-1.6l0.3-0.8c0.1-0.3,0.1-0.5,0.2-0.7c0.1-0.2,0.1-0.4,0.1-0.6
	v-0.2v-0.1v-0.1c0,0.2,0-0.4,0,0.4c0-0.6-0.1-1.1-0.3-1.7c-0.1-0.2-0.1-0.3-0.2-0.5l-0.3-0.8c-0.2-0.6-0.5-1.1-0.7-1.6
	c-0.2-0.6-0.5-1.1-0.8-1.7c-1.2-2.2-2.6-4.5-4-6.7c-2.9-4.4-5.9-8.7-8.9-12.9s-5.9-8.1-8.8-11.9l-8-10.6c-5-6.6-9.1-12.1-12-16
	c-2.9-3.8-4.5-6.1-4.5-6.1s2.1,1.8,5.6,5.1c1.8,1.7,3.9,3.7,6.3,6c2.4,2.4,5.1,5,7.9,8.1s5.9,6.3,9.1,9.8c3.2,3.6,6.5,7.3,9.8,11.4
	c3.3,4,6.6,8.3,9.7,12.9c1.6,2.3,3.1,4.7,4.5,7.2c0.4,0.6,0.7,1.3,1,2s0.7,1.3,0.9,2.1l0.4,1.1c0.2,0.4,0.3,1,0.4,1.5
	c0.2,0.8,0.3,1.6,0.4,2.4c0,0.8,0,0.3,0,0.5v0.1v0.2v0.4l-0.1,0.8c-0.1,0.5-0.2,0.9-0.3,1.4c-0.1,0.4-0.2,0.9-0.4,1.3l-0.4,1.1
	c-0.3,0.8-0.6,1.4-0.9,2.1s-0.7,1.3-1,2c-1.4,2.5-2.9,4.9-4.5,7.2c-3.1,4.6-6.4,8.8-9.7,12.9c-3.3,4.1-6.6,7.8-9.8,11.4
	c-3.2,3.5-6.2,6.8-9.1,9.8c-5.7,6-10.7,10.8-14.2,14.1S421.2,172.7,421.2,172.7z"/>
<path class="st1" d="M537.5,172.7c0,0-2.1-1.8-5.6-5.1c-3.5-3.3-8.5-8.1-14.2-14.1c-2.9-3-5.9-6.3-9.1-9.8
	c-3.2-3.6-6.5-7.3-9.8-11.4s-6.6-8.3-9.7-12.9c-1.6-2.3-3.1-4.7-4.5-7.2c-0.4-0.6-0.7-1.3-1-2c-0.3-0.7-0.7-1.3-0.9-2.1l-0.4-1.1
	c-0.1-0.4-0.3-0.8-0.4-1.3c-0.3-1-0.4-2-0.5-3v-0.5V102v-0.3l0.1-0.5c0.1-0.5,0.2-0.9,0.3-1.4c0.1-0.5,0.3-1.1,0.4-1.5l0.4-1.1
	c0.3-0.8,0.6-1.4,0.9-2.1c0.3-0.7,0.7-1.3,1-2c1.4-2.5,2.9-4.9,4.5-7.2c3.1-4.6,6.4-8.8,9.7-12.9c3.3-4.1,6.6-7.8,9.8-11.4
	c3.2-3.5,6.2-6.8,9.1-9.8c2.9-3,5.5-5.7,7.9-8.1c2.4-2.4,4.5-4.4,6.3-6c3.5-3.3,5.6-5.1,5.6-5.1s-1.6,2.2-4.5,6.1s-7,9.4-12,16
	l-8,10.6c-2.8,3.8-5.8,7.7-8.8,11.9c-3,4.2-6,8.4-8.9,12.9c-1.4,2.2-2.8,4.5-4,6.7c-0.3,0.6-0.6,1.1-0.8,1.7
	c-0.3,0.5-0.5,1.1-0.7,1.6l-0.3,0.8c-0.1,0.2-0.1,0.3-0.2,0.5c-0.1,0.2-0.2,0.4-0.2,0.6l-0.1,0.5v0.3v0.1c0-0.2,0,0.4,0-0.3
	c0,0.4,0.1,0.7,0.2,1.1c0.1,0.2,0.1,0.5,0.2,0.7l0.3,0.8c0.2,0.6,0.5,1.1,0.7,1.6c0.2,0.6,0.5,1.1,0.8,1.7c1.2,2.2,2.6,4.5,4,6.7
	c2.9,4.4,5.9,8.7,8.9,12.9c3,4.1,5.9,8.1,8.8,11.9l8,10.6c5,6.6,9.1,12.1,12,16C535.8,170.4,537.5,172.7,537.5,172.7z"/>
<path class="st0" d="M556.9,31.8c-2,0-4-0.4-5.9-1.1c-1.8-0.7-3.4-1.7-4.7-3.1c-1.3-1.3-2.4-2.9-3.1-4.6c-1.5-3.7-1.5-7.9,0-11.6
	c0.7-1.7,1.8-3.3,3.1-4.6c1.4-1.3,3-2.4,4.7-3.1c1.9-0.7,3.9-1.1,5.9-1.1c2,0,4.1,0.4,5.9,1.1c1.8,0.7,3.4,1.7,4.7,3.1
	c1.3,1.3,2.4,2.9,3.1,4.6c1.5,3.7,1.5,7.9,0,11.6c-1.5,3.5-4.3,6.3-7.9,7.7C561,31.5,559,31.8,556.9,31.8z M556.9,30.5
	c1.8,0,3.6-0.3,5.3-1c1.6-0.6,3.1-1.5,4.3-2.7c1.2-1.2,2.2-2.6,2.9-4.2c0.7-1.7,1.1-3.6,1-5.4c0-1.8-0.3-3.6-1-5.3
	c-0.6-1.6-1.6-3-2.8-4.2c-1.2-1.2-2.7-2.2-4.3-2.8c-1.7-0.7-3.5-1-5.4-1c-1.8,0-3.7,0.3-5.4,1c-3.2,1.3-5.7,3.8-7,7
	c-0.7,1.7-1,3.4-1,5.2c0,1.8,0.3,3.6,1,5.3c0.6,1.6,1.6,3,2.8,4.2c1.2,1.2,2.6,2.2,4.2,2.8C553.3,30.2,555.1,30.5,556.9,30.5z
	 M550.8,8.1h7.7c0.8,0,1.5,0.2,2.2,0.5c0.7,0.3,1.2,0.8,1.7,1.3c0.5,0.6,0.8,1.2,1.1,1.9c0.3,0.7,0.4,1.4,0.4,2.1
	c0,1.3-0.4,2.5-1.1,3.5c-0.7,1-1.8,1.7-3,1.9l4.5,7.1H562l-4.3-6.8h-4.8v6.8h-2.1V8.1z M558.5,17.7c1,0.1,1.9-0.3,2.5-1.1
	c0.6-0.8,0.9-1.8,0.8-2.8c0-1-0.3-2-1-2.8c-0.6-0.7-1.6-1.1-2.5-1.1h-5.5v7.7L558.5,17.7z"/>
<g class="st2">
	<path class="st0" d="M624.3,142V61.1h5.8v75.7h48.3v5.2H624.3z"/>
	<path class="st0" d="M692.3,69.3V58.8h5.7v10.5H692.3z M692.3,142V82.7h5.7V142H692.3z"/>
</g>
<g class="st2">
	<path class="st0" d="M738.4,142l-24.7-59.3h5.9l21.9,53.6l22-53.6h5.6L744.4,142H738.4z"/>
</g>
<g class="st2">
	<path class="st0" d="M807.4,143.2c-4.2,0-8.1-0.8-11.6-2.5c-3.6-1.6-6.7-3.9-9.3-6.7c-2.6-2.8-4.7-6.1-6.2-9.9
		c-1.5-3.7-2.2-7.7-2.2-12c0-4.2,0.7-8.1,2.2-11.8c1.5-3.7,3.5-6.9,6.1-9.7c2.6-2.8,5.6-5,9.2-6.6c3.5-1.6,7.4-2.4,11.5-2.4
		c4.2,0,8.1,0.8,11.6,2.5c3.6,1.6,6.6,3.8,9.2,6.6c2.6,2.8,4.6,6,6,9.7c1.4,3.7,2.2,7.6,2.2,11.7c0,0.4,0,0.9,0,1.4
		c0,0.6,0,0.9-0.1,1.1h-52c0.2,3.4,1,6.6,2.4,9.5c1.4,2.9,3.1,5.5,5.2,7.6c2.1,2.1,4.5,3.8,7.2,5c2.7,1.2,5.7,1.8,8.8,1.8
		c2.1,0,4.1-0.3,6-0.9c2-0.6,3.8-1.3,5.5-2.3c1.7-1,3.2-2.2,4.6-3.6c1.3-1.4,2.4-2.9,3.1-4.6l5,1.4c-0.8,2.1-2.1,4.1-3.7,5.9
		c-1.6,1.8-3.5,3.3-5.7,4.6c-2.2,1.3-4.5,2.3-7.1,3C812.8,142.8,810.1,143.2,807.4,143.2z M830.6,110.1c-0.2-3.5-1-6.7-2.3-9.6
		c-1.3-2.9-3-5.4-5.1-7.5c-2.1-2.1-4.5-3.7-7.2-4.9c-2.7-1.2-5.7-1.8-8.8-1.8c-3.1,0-6,0.6-8.8,1.8c-2.7,1.2-5.1,2.8-7.2,4.9
		c-2.1,2.1-3.8,4.6-5,7.5c-1.3,2.9-2,6.1-2.2,9.5H830.6z"/>
	<path class="st0" d="M942.1,142l-10.4-10.8c-3.1,3.6-6.8,6.6-10.9,8.7c-4.2,2.2-8.8,3.2-13.9,3.2c-3.3,0-6.6-0.5-9.6-1.5
		c-3.1-1-5.8-2.4-8.1-4.3c-2.4-1.9-4.2-4.1-5.6-6.7c-1.4-2.6-2.1-5.6-2.1-8.9c0-2.7,0.5-5.3,1.4-7.6c0.9-2.3,2.2-4.4,3.9-6.4
		c1.6-1.9,3.5-3.8,5.7-5.5c2.2-1.7,4.5-3.4,6.9-5c-2.1-2.3-3.9-4.3-5.4-6.2c-1.5-1.9-2.7-3.6-3.6-5.1c-0.9-1.5-1.6-3-2-4.4
		c-0.4-1.4-0.6-2.8-0.6-4.2c0-2.4,0.5-4.6,1.5-6.7c1-2.1,2.4-3.9,4.2-5.5c1.7-1.6,3.8-2.8,6.3-3.8c2.4-0.9,5.1-1.4,7.9-1.4
		c2.6,0,5,0.4,7.2,1.2c2.2,0.8,4.1,1.9,5.8,3.2c1.6,1.4,2.9,3,3.8,4.9c0.9,1.9,1.4,4,1.4,6.2c0,2.3-0.5,4.4-1.5,6.4
		c-1,2-2.3,3.9-4,5.7c-1.7,1.8-3.7,3.5-5.9,5.1c-2.2,1.6-4.6,3.3-7,5l24.4,25.3c1.7-3,3-6.2,3.9-9.7c0.9-3.5,1.4-7.2,1.4-11h5
		c-0.2,9.1-2.4,17.3-6.8,24.4l14.7,15.3H942.1z M907.6,138.5c4.3,0,8.2-1,11.7-2.9c3.5-1.9,6.5-4.5,9.1-7.8l-25.8-27
		c-2.2,1.5-4.2,3-6.1,4.6c-1.9,1.5-3.5,3.1-5,4.8c-1.4,1.7-2.6,3.5-3.4,5.5c-0.8,1.9-1.2,4-1.2,6.3c0,2.7,0.6,5.1,1.8,7.2
		c1.2,2.1,2.8,3.8,4.7,5.2c1.9,1.4,4.1,2.5,6.6,3.1C902.7,138.1,905.1,138.5,907.6,138.5z M893.1,77.3c0,1,0.1,2,0.4,3
		c0.3,1,0.8,2.1,1.6,3.4c0.8,1.3,1.9,2.8,3.3,4.5c1.4,1.7,3.2,3.7,5.4,6.1c5-3.3,9-6.3,12.1-9.1c3-2.8,4.6-5.9,4.6-9.4
		c0-3.2-1.2-5.8-3.6-7.9c-2.4-2.1-5.5-3.1-9.3-3.1c-2.1,0-4,0.3-5.7,1c-1.7,0.7-3.3,1.6-4.6,2.7c-1.3,1.1-2.3,2.5-3,4
		C893.5,74,893.1,75.6,893.1,77.3z"/>
	<path class="st0" d="M1044.3,74.5c-5.2-5.9-12.7-8.8-22.2-8.8c-7.9,0-13.7,1.5-17.3,4.5c-3.6,3-5.4,7-5.4,12.1
		c0,2.6,0.5,4.7,1.4,6.4c0.9,1.7,2.3,3.2,4.3,4.4c1.9,1.2,4.4,2.2,7.4,3.1c3,0.8,6.5,1.7,10.7,2.6c4.3,0.9,8.3,1.9,11.8,3
		c3.5,1.1,6.5,2.5,9,4.2c2.5,1.7,4.4,3.7,5.7,6.2c1.3,2.4,2,5.4,2,9c0,3.6-0.7,6.7-2.1,9.3c-1.4,2.7-3.4,4.9-5.9,6.7
		c-2.5,1.8-5.6,3.1-9.1,4c-3.5,0.9-7.5,1.4-11.8,1.4c-12.6,0-23.3-4-32-12.1l3.1-4.7c3.4,3.6,7.6,6.4,12.5,8.5
		c4.9,2.1,10.5,3.1,16.6,3.1c7.1,0,12.6-1.3,16.6-3.9c4-2.6,6-6.5,6-11.7c0-2.7-0.5-4.9-1.6-6.8c-1.1-1.9-2.6-3.5-4.7-4.8
		c-2.1-1.4-4.7-2.5-7.9-3.5c-3.2-1-6.9-1.9-11.2-2.8c-4.3-0.9-8.1-1.9-11.5-2.9c-3.3-1-6.1-2.3-8.3-3.9c-2.2-1.6-3.9-3.4-5.1-5.6
		c-1.1-2.2-1.7-5-1.7-8.3c0-3.6,0.7-6.9,2.1-9.7c1.4-2.8,3.4-5.2,5.9-7.1s5.5-3.4,9-4.4c3.5-1,7.4-1.5,11.6-1.5
		c5.2,0,9.9,0.8,14,2.3c4.1,1.6,7.8,3.9,11.2,7.1L1044.3,74.5z"/>
	<path class="st0" d="M1155,142h-5.7V109c0-7.5-1.2-13.1-3.5-16.6c-2.3-3.6-5.9-5.4-10.7-5.4c-2.4,0-4.7,0.5-7,1.4
		c-2.2,0.9-4.2,2.2-6,3.8c-1.8,1.6-3.4,3.6-4.7,5.8c-1.3,2.2-2.4,4.7-3.1,7.5V142h-5.7V109c0-7.6-1.1-13.2-3.4-16.7
		c-2.3-3.5-5.8-5.3-10.6-5.3c-2.4,0-4.7,0.4-6.9,1.3c-2.2,0.9-4.2,2.1-6,3.8c-1.8,1.6-3.4,3.6-4.8,5.8c-1.4,2.2-2.5,4.7-3.2,7.5V142
		h-5.7V82.7h5.4v14.1c2.4-4.8,5.6-8.5,9.6-11.2c4-2.7,8.3-4,13.1-4c5,0,9.1,1.5,12.2,4.4c3.1,3,5,6.8,5.6,11.6
		c5.6-10.7,13.4-16.1,23.3-16.1c6.5,0,11.1,2.3,13.8,6.9c2.8,4.6,4.2,11,4.2,19.3V142z"/>
	<path class="st0" d="M1190.2,143.2c-2.7,0-5.3-0.5-7.6-1.4c-2.4-0.9-4.4-2.2-6.2-3.9c-1.8-1.6-3.2-3.6-4.2-5.8
		c-1-2.2-1.5-4.7-1.5-7.2c0-2.6,0.6-4.9,1.8-7.1c1.2-2.1,2.9-4,5.1-5.5c2.2-1.6,4.8-2.8,7.8-3.6c3-0.9,6.4-1.3,10-1.3
		c3.2,0,6.4,0.3,9.6,0.9c3.2,0.6,6.1,1.4,8.7,2.3v-5.8c0-5.6-1.6-10.1-4.8-13.4c-3.2-3.3-7.5-5-13-5c-2.9,0-5.9,0.6-9.2,1.8
		c-3.2,1.2-6.5,3-9.9,5.2l-2.2-3.9c7.6-5.2,14.8-7.8,21.7-7.8c7.1,0,12.8,2.1,16.9,6.2c4.1,4.1,6.2,9.9,6.2,17.2v29
		c0,1.9,0.8,2.8,2.5,2.8v5.1c-0.4,0.1-0.8,0.1-1.2,0.2c-0.4,0-0.8,0.1-1.1,0.1c-1.5,0-2.7-0.5-3.6-1.5c-0.9-1-1.4-2.3-1.6-3.7v-4.9
		c-2.7,3.6-6.2,6.3-10.5,8.2C1199.8,142.2,1195.2,143.2,1190.2,143.2z M1191.4,138.6c4.4,0,8.5-0.8,12.1-2.5
		c3.7-1.7,6.5-3.9,8.5-6.6c1.2-1.6,1.8-3.1,1.8-4.6v-10.5c-2.7-1.1-5.6-1.9-8.5-2.4c-3-0.5-6-0.8-9.2-0.8c-3,0-5.7,0.3-8.1,1
		c-2.4,0.6-4.5,1.5-6.3,2.7c-1.7,1.1-3.1,2.5-4,4.2c-1,1.6-1.4,3.4-1.4,5.4c0,2,0.4,3.8,1.1,5.6c0.8,1.7,1.8,3.2,3.2,4.5
		c1.4,1.3,3,2.2,4.8,3C1187.3,138.2,1189.2,138.6,1191.4,138.6z"/>
	<path class="st0" d="M1268.3,87.9c-5.3,0.2-10,1.7-14,4.7c-4,3-6.8,7.1-8.4,12.4v37h-5.7V82.7h5.5v14.6c2.1-4.2,4.8-7.6,8.1-10.2
		c3.4-2.6,7-4.1,10.9-4.5c0.8-0.1,1.4-0.1,2.1-0.1c0.6,0,1.1,0,1.5,0V87.9z"/>
	<path class="st0" d="M1309,139.2c-0.3,0.2-0.8,0.4-1.5,0.9c-0.7,0.4-1.6,0.8-2.7,1.2c-1.1,0.4-2.3,0.7-3.7,1
		c-1.4,0.3-2.8,0.5-4.4,0.5c-1.6,0-3.1-0.2-4.5-0.7s-2.6-1.1-3.7-2.1c-1.1-0.9-1.9-2-2.5-3.3c-0.6-1.3-0.9-2.8-0.9-4.6V87.4h-8.3
		v-4.7h8.3V62.5h5.7v20.3h13.8v4.7h-13.8v43.3c0,2.2,0.8,3.9,2.3,5c1.5,1.1,3.2,1.7,5.1,1.7c2.4,0,4.4-0.4,6.1-1.2
		c1.7-0.8,2.8-1.3,3.1-1.5L1309,139.2z"/>
</g>
</svg>
